<?xml version="1.0" encoding="UTF-8" standalone="no"?><!DOCTYPE svg PUBLIC "-//W3C//DTD SVG 1.1//EN" "http://www.w3.org/Graphics/SVG/1.1/DTD/svg11.dtd"><svg width="100%" height="100%" viewBox="0 0 988 988" version="1.1" xmlns="http://www.w3.org/2000/svg" xmlns:xlink="http://www.w3.org/1999/xlink" xml:space="preserve" xmlns:serif="http://www.serif.com/" style="fill-rule:evenodd;clip-rule:evenodd;stroke-linejoin:round;stroke-miterlimit:2;"><g id="Discord"><path d="M987.972,187.715c-0,-103.603 -84.112,-187.715 -187.715,-187.715l-612.542,0c-103.603,0 -187.715,84.112 -187.715,187.715l0,612.542c0,103.603 84.112,187.715 187.715,187.715l612.542,-0c103.603,-0 187.715,-84.112 187.715,-187.715l-0,-612.542Z" style="fill:#202020;"/><clipPath id="_clip1"><rect id="discord-icon-svgrepo-com.svg" x="129.085" y="129.085" width="729.802" height="729.802"/></clipPath><g clip-path="url(#_clip1)"><g><path d="M747.297,257.646c-47.242,-22.103 -97.754,-38.167 -150.564,-47.314c-6.486,11.726 -14.063,27.498 -19.287,40.044c-56.138,-8.443 -111.76,-8.443 -166.866,-0c-5.223,-12.546 -12.972,-28.318 -19.516,-40.044c-52.866,9.147 -103.437,25.27 -150.678,47.431c-95.287,143.99 -121.117,284.404 -108.202,422.823c63.199,47.196 124.446,75.866 184.66,94.626c14.867,-20.461 28.127,-42.212 39.549,-65.135c-21.755,-8.267 -42.591,-18.468 -62.279,-30.311c5.223,-3.869 10.332,-7.915 15.268,-12.078c120.083,56.166 250.557,56.166 369.206,0c4.994,4.163 10.102,8.209 15.268,12.078c-19.746,11.901 -40.64,22.102 -62.395,30.37c11.423,22.864 24.625,44.674 39.549,65.134c60.272,-18.76 121.576,-47.429 184.775,-94.684c15.155,-160.463 -25.887,-299.588 -108.488,-422.94Zm-374.544,337.814c-36.048,-0 -65.61,-33.653 -65.61,-74.634c0,-40.981 28.931,-74.692 65.61,-74.692c36.68,0 66.241,33.652 65.61,74.692c0.057,40.981 -28.93,74.634 -65.61,74.634Zm242.464,-0c-36.048,-0 -65.61,-33.653 -65.61,-74.634c-0,-40.981 28.929,-74.692 65.61,-74.692c36.679,0 66.241,33.652 65.609,74.692c0,40.981 -28.93,74.634 -65.609,74.634Z" style="fill:#fff;fill-rule:nonzero;"/></g></g></g></svg>