<?xml version="1.0" encoding="UTF-8" standalone="no"?>
<!DOCTYPE svg PUBLIC "-//W3C//DTD SVG 1.1//EN" "http://www.w3.org/Graphics/SVG/1.1/DTD/svg11.dtd">
<svg width="100%" height="100%" viewBox="0 0 475 475" version="1.1" xmlns="http://www.w3.org/2000/svg" xmlns:xlink="http://www.w3.org/1999/xlink" xml:space="preserve" xmlns:serif="http://www.serif.com/" style="fill-rule:evenodd;clip-rule:evenodd;stroke-linejoin:round;stroke-miterlimit:2;">
    <g transform="matrix(1,0,0,1,-302.887,-302.887)">
        <g id="ModDB" transform="matrix(1,0,0,1,153.581,120.037)">
            <path d="M623.532,272.953C623.532,223.224 583.158,182.85 533.429,182.85L239.409,182.85C189.68,182.85 149.306,223.224 149.306,272.953L149.306,566.974C149.306,616.703 189.68,657.077 239.409,657.077L533.429,657.077C583.158,657.077 623.532,616.703 623.532,566.974L623.532,272.953Z" style="fill:rgb(32,32,32);"/>
            <g transform="matrix(1,0,0,1,-369.975,236.328)">
                <g opacity="0.97">
                    <g transform="matrix(1.44579,0,0,1.44579,-40.2738,-588.824)">
                        <circle cx="551.025" cy="472.809" r="58.379" style="fill:white;"/>
                    </g>
                    <g transform="matrix(1.07062,0,0,0.980331,182.949,-318.606)">
                        <path d="M574.353,496.444L574.353,672.153C574.353,677.605 570.3,682.031 565.307,682.031L508.018,682.031C503.025,682.031 498.972,677.605 498.972,672.153L498.972,496.444C498.972,490.992 503.025,486.566 508.018,486.566L565.307,486.566C570.3,486.566 574.353,490.992 574.353,496.444Z" style="fill:white;"/>
                    </g>
                    <g transform="matrix(1.07062,0,0,0.980331,182.949,-318.606)">
                        <path d="M574.353,496.652L574.353,511.849C562.594,517.889 549.465,521.265 535.62,521.265C522.588,521.265 510.19,518.273 498.972,512.885L498.972,497.895C509.924,504.192 522.394,507.757 535.62,507.757C549.694,507.757 562.911,503.721 574.353,496.652Z" style="fill-opacity:0.4;"/>
                    </g>
                    <g transform="matrix(1,0,0,1,216.394,-370.467)">
                        <path d="M527.018,701.311L515.092,701.311L515.092,578.284L540,578.284L540,590.329L527.018,590.329L527.018,701.311Z" style="fill-opacity:0.4;"/>
                    </g>
                    <g transform="matrix(1,0,0,1,216.955,-369.899)">
                        <rect x="526.664" y="355.866" width="25.552" height="103.21" style="fill:rgb(32,32,32);"/>
                    </g>
                    <g transform="matrix(1.06765,0,0,1,181.17,-370.656)">
                        <rect x="506.601" y="339.588" width="64.353" height="20.729" style="fill:rgb(32,32,32);"/>
                    </g>
                </g>
            </g>
        </g>
    </g>
</svg>
