<?xml version="1.0" encoding="UTF-8" standalone="no"?><!DOCTYPE svg PUBLIC "-//W3C//DTD SVG 1.1//EN" "http://www.w3.org/Graphics/SVG/1.1/DTD/svg11.dtd"><svg width="100%" height="100%" viewBox="0 0 988 988" version="1.1" xmlns="http://www.w3.org/2000/svg" xmlns:xlink="http://www.w3.org/1999/xlink" xml:space="preserve" xmlns:serif="http://www.serif.com/" style="fill-rule:evenodd;clip-rule:evenodd;stroke-linejoin:round;stroke-miterlimit:2;"><g id="ModDB"><path d="M987.972,187.715c-0,-103.603 -84.112,-187.715 -187.715,-187.715l-612.542,0c-103.603,0 -187.715,84.112 -187.715,187.715l0,612.542c0,103.603 84.112,187.715 187.715,187.715l612.542,-0c103.603,-0 187.715,-84.112 187.715,-187.715l-0,-612.542Z" style="fill:#202020;"/><g opacity="0.97"><path d="M635.902,369.223l0,448.127c0,20.444 -8.121,40.05 -22.577,54.506c-14.456,14.456 -34.063,22.577 -54.506,22.577c-38.945,0 -86.071,0 -125.016,0c-20.443,0 -40.05,-8.121 -54.506,-22.577c-14.456,-14.456 -22.577,-34.062 -22.577,-54.506c0,-145.94 0,-448.127 0,-448.127l279.182,-0Z"/><circle cx="493.986" cy="308.83" r="175.842" style="fill:#fff;"/><path d="M493.986,79.574c126.53,-0 229.256,102.726 229.256,229.256c0,126.529 -102.726,229.256 -229.256,229.256c-126.53,-0 -229.256,-102.727 -229.256,-229.256c-0,-126.53 102.726,-229.256 229.256,-229.256Zm-0,53.413c-97.05,0 -175.842,78.793 -175.842,175.843c-0,97.05 78.792,175.842 175.842,175.842c97.05,-0 175.842,-78.792 175.842,-175.842c0,-97.05 -78.792,-175.843 -175.842,-175.843Z"/><path d="M580.378,461.567l0,358.859c0,11.135 -9.04,20.176 -20.176,20.176l-127.782,-0c-11.135,-0 -20.176,-9.041 -20.176,-20.176l-0,-358.859c-0,-11.135 9.041,-20.176 20.176,-20.176l127.782,0c11.136,0 20.176,9.041 20.176,20.176Z" style="fill:#fff;"/><path d="M551.162,95.899l0,213.958c0,7.573 -6.148,13.722 -13.722,13.722l-86.908,0c-7.574,0 -13.722,-6.149 -13.722,-13.722l-0,-213.958c-0,-7.574 6.148,-13.723 13.722,-13.723l86.908,0c7.574,0 13.722,6.149 13.722,13.723Z"/><path d="M493.986,106.431c111.707,0 202.399,90.692 202.399,202.399c-0,111.706 -90.692,202.398 -202.399,202.398c-111.707,0 -202.399,-90.692 -202.399,-202.398c0,-111.707 90.692,-202.399 202.399,-202.399Zm-0,26.556c-97.05,0 -175.842,78.793 -175.842,175.843c-0,97.05 78.792,175.842 175.842,175.842c97.05,-0 175.842,-78.792 175.842,-175.842c0,-97.05 -78.792,-175.843 -175.842,-175.843Z" style="fill-opacity:0.4;"/><path d="M466.939,800.672l-24.845,0l0,-256.307l51.892,-0l-0,25.094l-27.047,0l0,231.213Z" style="fill-opacity:0.4;"/><rect x="467.369" y="82.176" width="53.233" height="215.021" style="fill:#202020;"/><rect x="422.417" y="46.688" width="143.138" height="43.185" style="fill:#202020;"/></g></g></svg>