<?xml version="1.0" encoding="UTF-8" standalone="no"?>
<!DOCTYPE svg PUBLIC "-//W3C//DTD SVG 1.1//EN" "http://www.w3.org/Graphics/SVG/1.1/DTD/svg11.dtd">
<svg width="100%" height="100%" viewBox="0 0 475 475" version="1.1" xmlns="http://www.w3.org/2000/svg" xmlns:xlink="http://www.w3.org/1999/xlink" xml:space="preserve" xmlns:serif="http://www.serif.com/" style="fill-rule:evenodd;clip-rule:evenodd;stroke-linejoin:round;stroke-miterlimit:2;">
    <g transform="matrix(1,0,0,1,-302.887,-302.887)">
        <g id="Steam" transform="matrix(1,0,0,1,153.581,120.037)">
            <path d="M623.532,272.953C623.532,223.224 583.158,182.85 533.429,182.85L239.409,182.85C189.68,182.85 149.306,223.224 149.306,272.953L149.306,566.974C149.306,616.703 189.68,657.077 239.409,657.077L533.429,657.077C583.158,657.077 623.532,616.703 623.532,566.974L623.532,272.953Z" style="fill:rgb(32,32,32);"/>
            <g id="steam-seeklogo.svg" transform="matrix(1.56244,0,0,1.56244,386.419,419.963)">
                <g transform="matrix(1,0,0,1,-128,-129.5)">
                    <clipPath id="_clip1">
                        <rect x="0" y="0" width="256" height="259"/>
                    </clipPath>
                    <g clip-path="url(#_clip1)">
                        <g transform="matrix(1.17194,0,0,1.17194,0,-23.9194)">
                            <path d="M-0,163.176C-0.169,152.715 -0.045,163.271 -0,118.851L68.724,147.688C74.545,143.666 81.585,141.322 89.15,141.322C89.832,141.322 90.506,141.341 91.17,141.378L121.736,96.669L121.736,96.042C121.736,69.139 143.426,47.246 170.089,47.246C196.751,47.246 218.441,69.139 218.441,96.042C218.441,122.944 196.751,144.846 170.089,144.846C169.719,144.846 169.36,144.837 168.991,144.828L125.398,176.205C125.426,176.787 125.444,177.368 125.444,177.94C125.444,198.144 109.161,214.576 89.15,214.576C71.584,214.576 56.887,201.918 53.566,185.164L-0,163.176ZM202.309,96.042C202.309,78.117 187.852,63.521 170.092,63.521C152.323,63.521 137.866,78.117 137.866,96.042C137.866,113.968 152.323,128.554 170.092,128.554C187.852,128.554 202.309,113.968 202.309,96.042ZM145.939,95.987C145.939,82.499 156.779,71.566 170.138,71.566C183.507,71.566 194.347,82.499 194.347,95.987C194.347,109.475 183.507,120.408 170.138,120.408C156.779,120.408 145.939,109.475 145.939,95.987ZM80.352,196.332L64.603,189.764C67.39,195.631 72.224,200.539 78.636,203.233C92.493,209.064 108.472,202.431 114.248,188.435C117.043,181.663 117.062,174.19 114.294,167.4C111.526,160.61 106.295,155.314 99.588,152.491C92.918,149.696 85.777,149.797 79.503,152.187L95.778,158.977C106,163.276 110.834,175.122 106.572,185.437C102.319,195.751 90.574,200.632 80.352,196.332Z" style="fill:rgb(235,235,235);"/>
                        </g>
                    </g>
                </g>
            </g>
        </g>
    </g>
</svg>
